<?xml version="1.0" encoding="utf-8"?>
<!-- Generator: Adobe Illustrator 23.0.3, SVG Export Plug-In . SVG Version: 6.00 Build 0)  -->
<svg version="1.1" id="Layer_1" xmlns="http://www.w3.org/2000/svg" xmlns:xlink="http://www.w3.org/1999/xlink" x="0px" y="0px"
	 viewBox="0 0 100 100" style="enable-background:new 0 0 100 100;" xml:space="preserve">
<style type="text/css">
	.st0{fill:url(#SVGID_1_);}
	.st1{fill:url(#SVGID_2_);}
	.st2{fill:url(#SVGID_3_);}
</style>
<linearGradient id="SVGID_1_" gradientUnits="userSpaceOnUse" x1="5.7023" y1="76.0455" x2="41.3272" y2="76.0455" gradientTransform="matrix(1 0 0 -1 0 102)">
	<stop  offset="0" style="stop-color:#93003C"/>
	<stop  offset="1" style="stop-color:#F50057"/>
</linearGradient>
<path class="st0" d="M17.6,6.5c4.7-3.4,9.9-4.8,14.4-5.2c-0.6,0.4-1.4,0.8-1.9,1.3c-3.4,2.5-5.8,5.8-7.3,9.9
	c-0.1,0.4-0.1,0.8,0.1,1.2c0.3,0.4,0.6,0.5,1,0.5c5.8,0,11,2.7,14.4,7.4c3.6,4.8,4.5,11.2,2.5,16.9c-1.2,3.5-3.4,6.4-6.4,8.6
	c-3.9,2.9-8.7,4-13.5,3.4c-4.8-0.8-9.1-3.2-12-7.1c-2.2-3-3.4-6.4-3.5-10C5.7,25,7.7,13.8,17.6,6.5z"/>
<linearGradient id="SVGID_2_" gradientUnits="userSpaceOnUse" x1="25.3429" y1="5.0818" x2="39.2857" y2="43.3894" gradientTransform="matrix(1 0 0 -1 0 102)">
	<stop  offset="0" style="stop-color:#93003C"/>
	<stop  offset="0.1686" style="stop-color:#9B003E"/>
	<stop  offset="0.4299" style="stop-color:#B10044"/>
	<stop  offset="0.7496" style="stop-color:#D4004E"/>
	<stop  offset="1" style="stop-color:#F50057"/>
	<stop  offset="1" style="stop-color:#F50057"/>
</linearGradient>
<path class="st1" d="M53.1,85.4c-1.4,3.4-3.9,6.1-6.9,8.1c-7,4-17.7,7.8-29,2.9C12,94,8.1,90.1,5.5,86.4c0.6,0.4,1.4,0.8,2.1,1
	c3.9,1.7,8.1,2.2,12.2,1.4c0.4-0.1,0.8-0.4,0.9-0.8c0.1-0.4,0.1-0.8,0-1.2c-2.9-5.1-3.1-10.9-0.9-16.2c2.5-5.6,7.4-9.5,13.4-10.7
	c3.6-0.6,7.3-0.3,10.7,1.2c4.4,1.9,7.9,5.5,9.6,10C55.2,76,55.1,81,53.1,85.4z"/>
<linearGradient id="SVGID_3_" gradientUnits="userSpaceOnUse" x1="91.6114" y1="35.9639" x2="59.3445" y2="68.2308" gradientTransform="matrix(1 0 0 -1 0 102)">
	<stop  offset="0" style="stop-color:#93003C"/>
	<stop  offset="1" style="stop-color:#F50057"/>
</linearGradient>
<path class="st2" d="M92.6,67.1c0-0.8,0-1.6-0.1-2.3c-0.5-4.2-2.2-8.1-4.9-11.2c-0.3-0.3-0.6-0.4-1-0.4h-0.1c-0.4,0-0.8,0.3-1,0.6
	c-3,4.9-7.9,8.2-13.6,8.8c-6,0.6-12-1.7-15.9-6.2c-2.3-2.7-3.9-6.2-4.3-9.7c-0.5-4.8,0.8-9.6,3.9-13.4c3-3.8,7.4-6.2,12.2-6.8
	c3.6-0.4,7.3,0.3,10.5,1.9c7,4,15.6,11.4,17,23.7C95.9,57.6,94.4,62.9,92.6,67.1z"/>
</svg>
